<?xml version="1.0" encoding="UTF-8" standalone="no"?>
<!-- Created with Inkscape (http://www.inkscape.org/) -->
<svg
   xmlns:dc="http://purl.org/dc/elements/1.1/"
   xmlns:cc="http://web.resource.org/cc/"
   xmlns:rdf="http://www.w3.org/1999/02/22-rdf-syntax-ns#"
   xmlns:svg="http://www.w3.org/2000/svg"
   xmlns="http://www.w3.org/2000/svg"
   xmlns:sodipodi="http://sodipodi.sourceforge.net/DTD/sodipodi-0.dtd"
   xmlns:inkscape="http://www.inkscape.org/namespaces/inkscape"
   id="svg2259"
   sodipodi:version="0.32"
   inkscape:version="0.45.1"
   width="1036.2794"
   height="233.30231"
   version="1.0"
   sodipodi:docbase="D:\YASSINE\Work"
   sodipodi:docname="SchrodingerEquation.PNG.svg"
   inkscape:output_extension="org.inkscape.output.svg.inkscape">
  <metadata
     id="metadata2264">
    <rdf:RDF>
      <cc:Work
         rdf:about="">
        <dc:format>image/svg+xml</dc:format>
        <dc:type
           rdf:resource="http://purl.org/dc/dcmitype/StillImage" />
      </cc:Work>
    </rdf:RDF>
  </metadata>
  <defs
     id="defs2262" />
  <sodipodi:namedview
     inkscape:window-height="717"
     inkscape:window-width="1024"
     inkscape:pageshadow="2"
     inkscape:pageopacity="0.0"
     guidetolerance="10.0"
     gridtolerance="10.0"
     objecttolerance="10.0"
     borderopacity="1.0"
     bordercolor="#666666"
     pagecolor="#ffffff"
     id="base"
     inkscape:zoom="0.37535821"
     inkscape:cx="1164.6435"
     inkscape:cy="439.63572"
     inkscape:window-x="-4"
     inkscape:window-y="-4"
     inkscape:current-layer="svg2259" />
  <path
     style="fill:#000000"
     d="M 701.76956,220.27017 C 695.05886,219.05818 689.56646,213.31666 688.25996,206.14794 C 686.87136,198.5294 690.87006,188.43703 697.79016,182.09429 C 700.83586,179.30274 705.05076,176.58957 707.89556,175.58943 C 711.37676,174.36555 716.51956,173.84531 719.30466,174.43522 C 723.60396,175.34588 727.42506,178.95979 728.55486,183.18406 C 728.80916,184.13462 729.13176,184.9124 729.27196,184.9124 C 729.59226,184.9124 731.14016,178.00759 731.65876,174.26576 C 732.85066,165.667 731.40246,159.33663 727.28796,155.15985 C 724.16006,151.98463 721.51406,151.0104 716.72786,151.27171 C 712.27156,151.51497 708.84166,153.01707 705.94006,155.99607 C 704.84076,157.12466 703.94226,158.17157 703.94346,158.32255 C 703.94456,158.47358 704.80336,158.8683 705.85176,159.19975 C 707.51326,159.72501 707.80276,159.98314 708.10606,161.21012 C 708.85726,164.24843 706.28596,167.23033 702.91226,167.23343 C 699.21416,167.23684 698.48076,164.20131 700.97506,159.21558 C 703.77696,153.61481 708.67926,150.05943 714.94266,149.08573 C 721.21156,148.1111 727.90946,150.24103 732.26156,154.59309 C 734.70476,157.0362 737.28186,161.86647 738.36366,166.02967 C 739.37646,169.92763 739.27506,178.3138 738.15226,183.50624 C 734.15556,201.9898 724.36886,215.89375 712.83426,219.4756 C 709.85346,220.40122 704.58846,220.77932 701.76956,220.27017 z M 710.99216,217.08011 C 713.92236,216.05019 716.80156,213.88354 719.23776,210.87504 C 723.77286,205.27463 727.32846,195.78876 727.38826,189.13088 C 727.47366,179.60065 721.42586,174.42979 712.78346,176.64389 C 709.34166,177.52564 707.04246,178.91966 704.22126,181.83532 C 700.55866,185.62042 698.21706,191.10162 696.31646,200.33841 C 694.47286,209.29866 695.85796,214.35059 700.83886,216.83266 C 703.46436,218.14099 707.68136,218.24373 710.99216,217.08011 z M 753.40886,219.2861 C 749.92726,218.15599 747.75756,214.96826 747.74196,210.96042 C 747.73606,209.41453 748.88326,204.06948 751.31796,194.29923 C 753.28966,186.38741 754.81576,179.7732 754.70926,179.60093 C 754.60286,179.42869 752.08566,179.28776 749.11566,179.28776 C 743.74866,179.28776 743.71556,179.28208 743.71556,178.36371 C 743.71556,176.65992 744.35006,176.47544 750.20856,176.47544 L 755.73736,176.47544 L 756.13116,174.96883 C 756.34766,174.1402 757.28156,170.31239 758.20636,166.46261 C 760.12176,158.49008 760.64256,157.59272 763.35496,157.59272 C 765.10266,157.59272 766.21416,158.39109 766.21416,159.64639 C 766.21416,160.28876 763.12396,173.19808 762.35676,175.76086 C 762.16896,176.38813 762.66566,176.46286 767.69726,176.56438 L 773.24496,176.67631 L 773.24496,177.8816 L 773.24496,179.08687 L 767.50616,179.19841 C 762.01006,179.30527 761.75126,179.3477 761.38506,180.2028 C 761.17486,180.69388 759.36616,187.67313 757.36586,195.71223 C 754.75376,206.21033 753.72346,211.05451 753.70916,212.90446 C 753.67726,217.06693 755.25126,218.49993 758.71526,217.4621 C 762.44146,216.34573 765.41986,213.21763 768.45776,207.23016 C 769.65406,204.87239 770.33456,203.9612 770.96876,203.86759 C 771.64866,203.76727 771.83796,203.94288 771.83486,204.67111 C 771.82496,207.0083 767.62046,213.77805 764.54226,216.41283 C 761.12136,219.34101 756.91906,220.42553 753.40886,219.2861 z M 129.19615,174.94565 C 126.7479,173.16879 122.00678,167.88633 119.61957,164.27563 C 113.70102,155.32365 110.68188,145.74923 109.67766,132.74743 C 108.43896,116.70981 112.10729,101.0466 119.7933,89.555043 C 123.4167,84.137613 130.23586,77.505023 131.42601,78.240583 C 132.17564,78.703883 131.85417,79.291173 129.16013,82.380163 C 119.53414,93.417263 114.96118,107.74197 114.96118,126.85807 C 114.96118,146.35682 119.75144,161.36259 129.29619,171.76331 C 131.69348,174.37559 132.25206,175.60052 131.20495,175.94908 C 130.96886,176.02771 130.06489,175.57613 129.19615,174.94565 z M 178.99097,175.48317 C 178.85164,175.12009 179.80925,173.69465 181.47767,171.78167 C 191.73246,160.02357 196.16368,145.06873 195.60661,124.09822 C 195.13352,106.28921 190.78074,92.988953 182.19476,83.117233 C 178.54894,78.925463 178.57012,78.957933 179.12196,78.406103 C 179.84165,77.686413 181.9375,79.195003 185.61421,83.079193 C 194.82512,92.809883 199.69258,104.86449 200.98509,121.14617 C 202.29051,137.59045 198.25597,154.28635 190.27367,165.47255 C 187.03259,170.01449 180.91575,176.07367 179.57165,176.07367 C 179.3769,176.07367 179.11559,175.80795 178.99097,175.48317 z M 223.83813,175.68043 C 223.30913,175.34608 223.22136,169.54202 223.11982,128.17845 C 223.05621,102.26189 223.10933,80.471313 223.23787,79.754943 C 223.40859,78.803493 223.73892,78.385363 224.46359,78.203483 C 226.78351,77.621223 226.65045,74.650673 226.65045,127.02778 C 226.65045,163.88893 226.53795,175.22194 226.16834,175.59156 C 225.59217,176.16773 224.66501,176.20308 223.83813,175.68043 z M 335.29902,174.94565 C 332.85077,173.16879 328.10965,167.88633 325.72244,164.27563 C 319.80389,155.32365 316.78474,145.74923 315.78053,132.74743 C 314.54183,116.70981 318.21016,101.0466 325.89616,89.555043 C 329.51957,84.137613 336.33873,77.505023 337.52888,78.240583 C 338.27851,78.703883 337.95704,79.291173 335.263,82.380163 C 325.63701,93.417263 321.06404,107.74197 321.06404,126.85807 C 321.06404,146.35682 325.85431,161.36259 335.39906,171.76331 C 337.79635,174.37559 338.35493,175.60052 337.30782,175.94908 C 337.07173,176.02771 336.16776,175.57613 335.29902,174.94565 z M 384.69208,175.48317 C 384.55274,175.12009 385.51036,173.69465 387.17878,171.78167 C 397.43357,160.02357 401.8648,145.06873 401.30772,124.09822 C 400.83463,106.28921 396.48186,92.988953 387.89586,83.117233 C 384.25006,78.925463 384.27123,78.957933 384.82306,78.406103 C 385.54275,77.686413 387.63861,79.195003 391.31532,83.079193 C 400.52622,92.809883 405.39366,104.86449 406.68621,121.14617 C 407.99161,137.59045 403.95707,154.28635 395.97477,165.47255 C 392.7337,170.01449 386.61687,176.07367 385.27276,176.07367 C 385.07801,176.07367 384.81671,175.80795 384.69208,175.48317 z M 423.34065,175.44231 C 422.99341,175.0951 422.70932,174.57736 422.70932,174.29178 C 422.70932,174.00621 426.69772,163.26557 431.57247,150.42367 L 440.43558,127.07474 L 431.55584,103.66435 C 425.65221,88.100123 422.75103,79.952993 422.89971,79.356073 C 423.18601,78.206503 424.95379,77.705953 425.78652,78.538663 C 426.32637,79.078533 444.40436,126.20984 444.40436,127.07744 C 444.40436,127.71997 426.6855,174.23168 426.08338,175.16971 C 425.40686,176.22361 424.23814,176.3398 423.34065,175.44231 z M 800.76556,175.68043 C 800.23646,175.34608 800.14876,169.54202 800.04726,128.17845 C 799.98356,102.26189 800.03666,80.471313 800.16526,79.754943 C 800.33596,78.803493 800.66626,78.385363 801.39096,78.203483 C 803.71096,77.621223 803.57776,74.650673 803.57776,127.02778 C 803.57776,163.88893 803.46536,175.22194 803.09566,175.59156 C 802.51956,176.16773 801.59236,176.20308 800.76556,175.68043 z M 912.22636,174.94565 C 909.77816,173.16879 905.03706,167.88633 902.64976,164.27563 C 896.73126,155.32365 893.71216,145.74923 892.70796,132.74743 C 891.46916,116.70981 895.13756,101.0466 902.82346,89.555043 C 906.44696,84.137613 913.26616,77.505023 914.45626,78.240583 C 915.20586,78.703883 914.88436,79.291173 912.19036,82.380163 C 902.56436,93.417263 897.99146,107.74197 897.99146,126.85807 C 897.99146,146.35682 902.78176,161.36259 912.32646,171.76331 C 914.72376,174.37559 915.28226,175.60052 914.23526,175.94908 C 913.99916,176.02771 913.09516,175.57613 912.22636,174.94565 z M 962.02126,175.48317 C 961.88186,175.12009 962.83956,173.69465 964.50796,171.78167 C 974.76276,160.02357 979.19396,145.06873 978.63686,124.09822 C 978.16376,106.28921 973.81106,92.988953 965.22496,83.117233 C 961.57916,78.925463 961.60036,78.957933 962.15226,78.406103 C 962.87186,77.686413 964.96776,79.195003 968.64446,83.079193 C 977.85546,92.809883 982.72276,104.86449 984.01536,121.14617 C 985.32076,137.59045 981.28616,154.28635 973.30396,165.47255 C 970.06276,170.01449 963.94606,176.07367 962.60196,176.07367 C 962.40716,176.07367 962.14576,175.80795 962.02126,175.48317 z M 1000.6699,175.44231 C 1000.3226,175.0951 1000.0385,174.57736 1000.0385,174.29178 C 1000.0385,174.00621 1004.0269,163.26557 1008.9016,150.42367 L 1017.7648,127.07474 L 1008.885,103.66435 C 1002.9814,88.100123 1000.0802,79.952993 1000.2289,79.356073 C 1000.5151,78.206503 1002.283,77.705953 1003.1157,78.538663 C 1003.6556,79.078533 1021.7335,126.20984 1021.7335,127.07744 C 1021.7335,127.71997 1004.0147,174.23168 1003.4125,175.16971 C 1002.736,176.22361 1001.5673,176.3398 1000.6699,175.44231 z M 262.13231,171.00395 C 261.99505,170.64626 262.81854,166.62363 263.9623,162.06478 C 265.10606,157.50593 266.0376,153.50035 266.0324,153.16347 C 266.02547,152.71506 265.23873,152.4262 263.096,152.08526 C 256.69933,151.06753 252.48979,148.51941 250.49547,144.45793 C 249.50108,142.43282 249.35243,141.67426 249.36913,138.70999 C 249.39061,134.89725 250.06986,132.36853 253.84779,122.03695 C 256.32435,115.26421 256.72095,112.4784 255.41446,111.03223 C 253.45845,108.86702 249.15182,111.11166 246.46474,115.69682 C 245.87539,116.70246 244.90094,118.99238 244.2993,120.78552 C 243.34456,123.63106 243.08518,124.04575 242.26006,124.04575 C 241.40841,124.04575 241.32454,123.88641 241.41407,122.43872 C 241.53639,120.46069 244.28182,114.63103 246.18457,112.30898 C 248.40236,109.60245 250.78157,108.41074 253.9457,108.42159 C 258.0285,108.43557 260.66638,110.32039 261.63442,113.91542 C 262.28319,116.32477 261.91908,118.137 259.40134,125.02974 C 255.57537,135.50407 254.87683,139.29243 256.04965,143.20693 C 257.09072,146.68172 261.44324,149.91577 265.3106,150.08804 L 266.92902,150.16015 L 275.23986,117.24348 C 283.66355,83.879853 284.04133,82.643343 285.39679,83.999603 C 285.81333,84.416383 284.34181,90.733163 277.58834,117.51884 C 273.01141,135.67201 269.35549,150.61342 269.4641,150.72205 C 269.57272,150.83065 271.03545,150.72157 272.71461,150.47967 C 276.70924,149.90419 281.35867,147.58403 285.20311,144.24765 C 288.73637,141.18134 291.09014,138.18269 293.23324,134.01752 C 295.46886,129.67252 296.30432,126.90432 296.3034,123.84488 C 296.30245,120.69741 295.38852,118.43477 293.00736,115.6848 C 292.08691,114.62175 291.33448,113.35621 291.33531,112.87248 C 291.33961,110.35393 294.71687,107.76279 297.10319,108.44718 C 300.03005,109.28658 301.03033,113.16525 299.98557,119.6239 C 298.18926,130.72875 295.40287,136.86146 289.1655,143.43843 C 284.13948,148.73808 278.97612,151.52257 272.46712,152.44335 L 268.71462,152.97424 L 266.3904,161.97314 C 265.11208,166.92254 263.82848,171.12283 263.53796,171.30703 C 262.75565,171.80313 262.41041,171.72868 262.13231,171.00395 z M 839.46136,171.00395 C 839.32416,170.64626 840.14766,166.62363 841.29146,162.06478 C 842.43516,157.50593 843.36676,153.50035 843.36156,153.16347 C 843.35456,152.71506 842.56796,152.4262 840.42516,152.08526 C 834.02846,151.06753 829.81896,148.51941 827.82466,144.45793 C 826.83026,142.43282 826.68156,141.67426 826.69836,138.70999 C 826.71976,134.89725 827.39906,132.36853 831.17686,122.03695 C 833.65346,115.26421 834.05016,112.4784 832.74366,111.03223 C 830.78756,108.86702 826.48096,111.11166 823.79386,115.69682 C 823.20446,116.70246 822.23006,118.99238 821.62836,120.78552 C 820.67366,123.63106 820.41436,124.04575 819.58916,124.04575 C 818.73756,124.04575 818.65366,123.88641 818.74326,122.43872 C 818.86546,120.46069 821.61096,114.63103 823.51366,112.30898 C 825.73146,109.60245 828.11066,108.41074 831.27486,108.42159 C 835.35766,108.43557 837.99556,110.32039 838.96356,113.91542 C 839.61236,116.32477 839.24816,118.137 836.73056,125.02974 C 832.90446,135.50407 832.20596,139.29243 833.37876,143.20693 C 834.41986,146.68172 838.77236,149.91577 842.63976,150.08804 L 844.25816,150.16015 L 852.56896,117.24348 C 860.99266,83.879853 861.37046,82.643343 862.72596,83.999603 C 863.14246,84.416383 861.67096,90.733163 854.91756,117.51884 C 850.34056,135.67201 846.68466,150.61342 846.79316,150.72205 C 846.90186,150.83065 848.36466,150.72157 850.04376,150.47967 C 854.03836,149.90419 858.68786,147.58403 862.53226,144.24765 C 866.06546,141.18134 868.41926,138.18269 870.56236,134.01752 C 872.79796,129.67252 873.63336,126.90432 873.63246,123.84488 C 873.63156,120.69741 872.71766,118.43477 870.33656,115.6848 C 869.41606,114.62175 868.66366,113.35621 868.66446,112.87248 C 868.66876,110.35393 872.04606,107.76279 874.43236,108.44718 C 877.35926,109.28658 878.35946,113.16525 877.31476,119.6239 C 875.51836,130.72875 872.73206,136.86146 866.49466,143.43843 C 861.46866,148.73808 856.30526,151.52257 849.79626,152.44335 L 846.04376,152.97424 L 843.71946,161.97314 C 842.44116,166.92254 841.15756,171.12283 840.86706,171.30703 C 840.08476,171.80313 839.73956,171.72868 839.46136,171.00395 z M 149.96528,152.19217 C 146.48369,151.06206 144.31402,147.87434 144.29848,143.8665 C 144.29249,142.32061 145.4397,136.97555 147.87447,127.20532 C 149.84612,119.2935 151.37218,112.67928 151.26572,112.507 C 151.15925,112.33477 148.64214,112.19383 145.67211,112.19383 C 140.30511,112.19383 140.27205,112.18817 140.27205,111.26978 C 140.27205,109.566 140.90648,109.38151 146.76509,109.38151 L 152.29389,109.38151 L 152.68761,107.87492 C 152.90416,107.04629 153.83803,103.21848 154.76288,99.368703 C 156.67817,91.396173 157.19904,90.498783 159.91134,90.498783 C 161.65905,90.498783 162.77061,91.297183 162.77061,92.552473 C 162.77061,93.194853 159.68044,106.10415 158.91321,108.66695 C 158.72542,109.29421 159.22217,109.36894 164.25379,109.47047 L 169.80141,109.58239 L 169.80141,110.78767 L 169.80141,111.99296 L 164.06266,112.10448 C 158.56647,112.21135 158.30774,112.25377 157.94154,113.10889 C 157.73124,113.59995 155.92259,120.57921 153.92232,128.6183 C 151.3102,139.11641 150.27989,143.9606 150.26569,145.81054 C 150.23374,149.97301 151.80773,151.40602 155.27175,150.36818 C 158.99788,149.25181 161.97633,146.12372 165.01421,140.13624 C 166.21048,137.77847 166.89093,136.86728 167.5252,136.77367 C 168.2051,136.67336 168.3944,136.84896 168.39133,137.57719 C 168.38149,139.91439 164.17691,146.68412 161.09874,149.31891 C 157.67782,152.24709 153.47552,153.3316 149.96528,152.19217 z M 356.06815,152.19217 C 352.58656,151.06206 350.41688,147.87434 350.40135,143.8665 C 350.39536,142.32061 351.54257,136.97555 353.97733,127.20532 C 355.94898,119.2935 357.47505,112.67928 357.36859,112.507 C 357.26212,112.33477 354.745,112.19383 351.77498,112.19383 C 346.40798,112.19383 346.37492,112.18817 346.37492,111.26978 C 346.37492,109.566 347.00935,109.38151 352.86796,109.38151 L 358.39675,109.38151 L 358.79047,107.87492 C 359.00703,107.04629 359.9409,103.21848 360.86575,99.368703 C 362.78104,91.396173 363.30191,90.498783 366.0142,90.498783 C 367.76192,90.498783 368.87348,91.297183 368.87348,92.552473 C 368.87348,93.194853 365.78331,106.10415 365.01607,108.66695 C 364.82829,109.29421 365.32504,109.36894 370.35665,109.47047 L 375.90428,109.58239 L 375.90428,110.78767 L 375.90428,111.99296 L 370.16553,112.10448 C 364.66934,112.21135 364.41061,112.25377 364.04441,113.10889 C 363.83411,113.59995 362.02546,120.57921 360.02519,128.6183 C 357.41307,139.11641 356.38275,143.9606 356.36856,145.81054 C 356.33661,149.97301 357.9106,151.40602 361.37462,150.36818 C 365.10075,149.25181 368.07919,146.12372 371.11708,140.13624 C 372.31335,137.77847 372.9938,136.86728 373.62807,136.77367 C 374.30797,136.67336 374.49727,136.84896 374.4942,137.57719 C 374.48435,139.91439 370.27978,146.68412 367.20161,149.31891 C 363.78069,152.24709 359.57839,153.3316 356.06815,152.19217 z M 598.98518,152.22287 C 596.55944,151.32004 595.61321,150.51684 594.66301,148.55392 C 593.28445,145.7062 593.65206,143.00637 596.44096,135.49591 C 604.10364,114.86035 604.38927,113.90155 603.44645,111.9789 C 602.69226,110.4408 601.86877,110.02501 600.19753,110.33855 C 597.08466,110.92251 594.02747,114.83344 591.86679,120.99564 C 590.92949,123.66882 590.67618,124.04575 589.81722,124.04575 C 588.95846,124.04575 588.8497,123.88412 588.93897,122.74063 C 589.21571,119.19579 593.1131,112.41343 596.16161,110.17149 C 598.36418,108.55172 601.4822,107.90315 603.8885,108.56426 C 607.49876,109.55612 609.91206,113.40113 609.37656,117.30816 C 609.24776,118.24736 607.04146,124.66736 604.47353,131.57477 C 599.2863,145.52794 598.64232,148.31431 600.23634,149.90833 C 601.31008,150.98208 602.38298,150.98685 604.57103,149.92766 C 607.35056,148.58209 609.63786,145.11417 611.52096,139.39042 C 612.29426,137.0402 612.54206,136.67319 613.28436,136.77905 C 614.01446,136.88319 614.13396,137.13835 614.05716,138.42949 C 613.94106,140.38288 611.15156,146.35251 609.29806,148.6145 C 606.54747,151.97125 602.30103,153.45704 598.98518,152.22287 z M 626.08926,152.14617 C 625.42256,151.67909 625.19636,151.11835 625.19636,149.93156 C 625.19636,149.05748 627.99866,137.13771 631.42366,123.44311 C 634.84866,109.74853 637.65096,98.367623 637.65096,98.152243 C 637.65096,97.934533 636.00286,97.709343 633.93926,97.645103 C 630.67646,97.543583 630.21006,97.438233 630.08296,96.774213 C 629.85896,95.603083 630.72516,95.332693 634.72266,95.326063 L 638.42346,95.319913 L 638.86646,93.612433 C 639.11016,92.673323 639.46116,91.327993 639.64656,90.622813 C 640.20346,88.504983 639.45346,87.933113 635.88266,87.752793 C 632.83506,87.598903 632.82986,87.596673 632.82986,86.460983 C 632.82986,85.835273 633.01056,85.211583 633.23166,85.075013 C 634.07956,84.550913 646.95406,83.570713 647.38106,83.997733 C 647.67146,84.288143 647.41436,85.946753 646.54206,89.411233 C 645.85036,92.158393 645.28436,94.608563 645.28436,94.856093 C 645.28436,95.173523 648.26076,95.337753 655.38526,95.413443 C 664.56336,95.510993 665.52696,95.586093 665.93146,96.235293 C 666.27626,96.788473 666.24076,97.036563 665.77416,97.333983 C 665.43156,97.552383 660.71326,97.720833 654.84166,97.724333 L 644.51186,97.730483 L 644.11526,99.237073 C 643.89726,100.0657 642.97846,103.72675 642.07346,107.37271 C 641.16856,111.01869 640.32236,114.35346 640.19286,114.7833 C 640.03836,115.29643 640.73966,114.86774 642.23486,113.53507 C 647.14646,109.15749 653.32166,107.54812 658.87696,109.19787 C 663.27296,110.50334 665.35106,113.58806 665.36076,118.82288 C 665.36836,122.90263 664.46196,126.65712 661.33556,135.49591 C 658.07956,144.70104 657.44116,147.42939 658.18716,148.9513 C 659.03226,150.67553 659.80546,150.99304 661.74416,150.41222 C 665.06686,149.41669 667.91216,145.67238 669.96076,139.59945 C 670.65826,137.53163 671.04946,136.90207 671.63686,136.90207 C 672.83936,136.90207 672.79006,138.67247 671.49496,142.00776 C 669.96056,145.95959 667.68276,149.31147 665.52096,150.79879 C 658.83476,155.39902 651.00656,150.81739 652.41696,143.12935 C 652.63986,141.91403 653.85096,138.02701 655.10826,134.49151 C 659.92376,120.95064 660.55996,114.45297 657.35046,111.59119 C 656.62716,110.94625 655.88116,110.78767 653.57026,110.78767 C 651.12856,110.78767 650.28456,110.98787 648.01416,112.10561 C 644.86736,113.65475 640.78196,117.7891 639.10346,121.12311 C 638.46276,122.39577 636.75156,128.45768 634.81946,136.29944 C 633.05016,143.48089 631.40116,149.86233 631.15516,150.48039 C 630.69246,151.64305 628.99856,152.77159 627.71636,152.77159 C 627.31246,152.77159 626.58046,152.49016 626.08926,152.14617 z M 932.99556,152.19217 C 929.51396,151.06206 927.34426,147.87434 927.32866,143.8665 C 927.32276,142.32061 928.46996,136.97555 930.90476,127.20532 C 932.87636,119.2935 934.40246,112.67928 934.29596,112.507 C 934.18956,112.33477 931.67236,112.19383 928.70236,112.19383 C 923.33536,112.19383 923.30236,112.18817 923.30236,111.26978 C 923.30236,109.566 923.93676,109.38151 929.79536,109.38151 L 935.32406,109.38151 L 935.71786,107.87492 C 935.93436,107.04629 936.86826,103.21848 937.79306,99.368703 C 939.70846,91.396173 940.22926,90.498783 942.94156,90.498783 C 944.68936,90.498783 945.80086,91.297183 945.80086,92.552473 C 945.80086,93.194853 942.71076,106.10415 941.94346,108.66695 C 941.75566,109.29421 942.25236,109.36894 947.28396,109.47047 L 952.83166,109.58239 L 952.83166,110.78767 L 952.83166,111.99296 L 947.09286,112.10448 C 941.59676,112.21135 941.33796,112.25377 940.97176,113.10889 C 940.76156,113.59995 938.95286,120.57921 936.95266,128.6183 C 934.34046,139.11641 933.31016,143.9606 933.29596,145.81054 C 933.26396,149.97301 934.83796,151.40602 938.30196,150.36818 C 942.02816,149.25181 945.00666,146.12372 948.04446,140.13624 C 949.24076,137.77847 949.92126,136.86728 950.55546,136.77367 C 951.23536,136.67336 951.42466,136.84896 951.42156,137.57719 C 951.41166,139.91439 947.20706,146.68412 944.12906,149.31891 C 940.70816,152.24709 936.50586,153.3316 932.99556,152.19217 z M 14.636904,150.8867 C 14.535874,150.62338 14.515814,150.08101 14.592334,149.68141 C 14.709924,149.0672 15.320494,148.90955 18.540764,148.66179 C 22.663974,148.3446 24.386044,147.83059 24.967834,146.74351 C 25.332984,146.06124 39.430304,90.079753 39.430304,89.312023 C 39.430304,88.540063 37.807264,88.078333 34.191744,87.821693 C 30.380094,87.551133 29.768404,87.215813 30.521014,85.809493 C 30.890224,85.119583 31.733294,85.076623 44.418904,85.101353 C 53.549094,85.119153 58.064794,85.268733 58.359164,85.563113 C 58.598654,85.802603 58.682334,86.352243 58.545124,86.784563 C 58.326054,87.474783 57.805394,87.597593 54.272924,87.792243 C 49.740454,88.041993 48.530344,88.569933 47.647564,90.682723 C 47.107754,91.974703 41.439094,114.17346 41.439094,114.99547 C 41.439094,115.27012 46.400664,115.40792 56.288734,115.40792 L 71.138374,115.40792 L 71.546534,113.89211 C 73.472834,106.73837 77.495444,89.495033 77.335334,89.077803 C 77.030534,88.283483 76.188234,88.079693 72.100254,87.811163 C 68.571434,87.579363 68.357024,87.514033 68.357024,86.670673 C 68.357024,86.178633 68.583014,85.611963 68.859224,85.411403 C 69.138714,85.208463 75.330044,85.063383 82.820384,85.084233 L 96.279344,85.121713 L 96.279344,86.303643 L 96.279344,87.485593 L 92.388234,87.763123 C 87.433964,88.116473 86.298664,88.680383 85.480614,91.194163 C 84.310394,94.790163 71.536404,146.46923 71.659284,147.11043 C 71.839974,148.05332 74.194284,148.70562 77.509674,148.7313 C 80.596344,148.75524 81.284154,149.18617 80.492784,150.60028 C 80.140524,151.22972 78.921454,151.29339 66.564234,151.32775 C 57.534734,151.35286 52.904844,151.22458 52.670984,150.94274 C 52.478074,150.71028 52.424164,150.12271 52.551174,149.63702 C 52.759124,148.84186 53.047264,148.75223 55.447124,148.73648 C 59.218914,148.71173 61.471334,148.19073 62.556184,147.09208 C 63.309004,146.32974 64.171134,143.43184 66.929824,132.39111 C 68.819624,124.82782 70.365824,118.54313 70.365824,118.42505 C 70.365824,118.30701 63.640244,118.25784 55.420094,118.31578 L 40.474354,118.42111 L 36.929074,132.66238 C 32.709194,149.61352 32.560394,148.336 38.792524,148.66199 C 42.488024,148.85528 42.644384,148.90104 42.644384,149.78941 C 42.644384,150.29868 42.442464,150.84017 42.195674,150.99268 C 41.948894,151.14519 35.688534,151.29147 28.283774,151.3177 C 18.198414,151.35347 14.774484,151.24531 14.636904,150.8867 z M 488.60231,137.71081 C 487.89542,136.85908 488.42139,135.23513 489.49755,134.94674 C 490.68415,134.6288 550.79338,134.6288 551.97998,134.94674 C 553.05614,135.23513 553.58212,136.85908 552.87523,137.71081 C 552.1255,138.61422 489.35204,138.61422 488.60231,137.71081 z M 683.85336,127.05895 L 683.85336,125.05015 L 730.45756,125.05015 L 777.06166,125.05015 L 777.06166,127.05895 L 777.06166,129.06775 L 730.45756,129.06775 L 683.85336,129.06775 L 683.85336,127.05895 z M 489.30133,119.14862 C 488.39701,118.91227 487.95664,117.18506 488.60231,116.40709 C 489.35204,115.50369 552.1255,115.50369 552.87523,116.40709 C 553.58212,117.25882 553.05614,118.88278 551.97998,119.17112 C 550.93987,119.44986 490.37066,119.42809 489.30133,119.14862 z M 605.50105,94.215073 C 603.13841,91.217943 607.36816,85.814423 611.04976,87.126553 C 613.88176,88.135913 614.22396,91.507543 611.74596,93.985593 C 610.58856,95.142943 610.14376,95.319913 608.39176,95.319913 C 606.66735,95.319913 606.24463,95.158323 605.50105,94.215073 z M 719.44696,86.885873 C 712.73626,85.673843 707.24386,79.932353 705.93736,72.763623 C 704.54886,65.145073 708.54756,55.052713 715.46766,48.709973 C 718.51326,45.918413 722.72816,43.205243 725.57296,42.205123 C 729.05426,40.981243 734.19696,40.460973 736.98216,41.050913 C 741.28136,41.961563 745.10246,45.575483 746.23226,49.799733 C 746.48656,50.750323 746.80926,51.528073 746.94946,51.528073 C 747.26966,51.528073 748.81756,44.623283 749.33626,40.881433 C 750.52816,32.282703 749.07996,25.952313 744.96546,21.775563 C 741.83756,18.600323 739.19146,17.626083 734.40526,17.887383 C 729.94906,18.130653 726.51916,19.632763 723.61746,22.611773 C 722.51816,23.740333 721.61976,24.787253 721.62086,24.938253 C 721.62206,25.089243 722.48076,25.483973 723.52926,25.815433 C 725.19076,26.340673 725.48016,26.598843 725.78346,27.825793 C 726.53476,30.864113 723.96346,33.846013 720.58966,33.849123 C 716.89166,33.852533 716.15816,30.816973 718.65246,25.831273 C 721.45446,20.230493 726.35676,16.675123 732.62006,15.701393 C 738.88896,14.726773 745.58686,16.856693 749.93896,21.208783 C 752.38216,23.651893 754.95926,28.482143 756.04106,32.645353 C 757.05396,36.543303 756.95246,44.929513 755.82966,50.121913 C 751.83296,68.605503 742.04626,82.509453 730.51166,86.091273 C 727.53086,87.016893 722.26586,87.394993 719.44696,86.885873 z M 728.66956,83.695773 C 731.59976,82.665883 734.47896,80.499223 736.91516,77.490733 C 741.45036,71.890303 745.00596,62.404453 745.06566,55.746553 C 745.15126,46.216333 739.10326,41.045493 730.46086,43.259583 C 727.01916,44.141333 724.71996,45.535323 721.89866,48.450993 C 718.23606,52.236083 715.89446,57.717293 713.99396,66.954093 C 712.15026,75.914363 713.53546,80.966273 718.51626,83.448343 C 721.14176,84.756663 725.35876,84.859423 728.66956,83.695773 z "
     id="path2268" />
</svg>
