<?xml version="1.0" standalone="no"?>
<!DOCTYPE svg PUBLIC "-//W3C//DTD SVG 20010904//EN"
 "http://www.w3.org/TR/2001/REC-SVG-20010904/DTD/svg10.dtd">
<svg version="1.0" xmlns="http://www.w3.org/2000/svg"
 width="900.000000pt" height="900.000000pt" viewBox="0 0 900.000000 900.000000"
 preserveAspectRatio="xMidYMid meet">
<metadata>
Created by potrace 1.14, written by Peter Selinger 2001-2017
</metadata>
<g transform="translate(0.000000,900.000000) scale(0.100000,-0.100000)"
fill="#000000" stroke="none">
<path d="M4424 8429 c-181 -17 -299 -56 -427 -139 -188 -124 -380 -372 -519
-670 -54 -115 -163 -392 -194 -493 -60 -190 -64 -199 -93 -192 -440 113 -953
167 -1282 135 -487 -48 -839 -197 -1032 -439 -69 -87 -129 -207 -153 -307 -26
-107 -24 -269 5 -379 39 -151 152 -353 263 -471 l29 -31 -20 -34 c-32 -54 -61
-177 -61 -254 0 -134 33 -227 122 -348 123 -166 309 -251 553 -250 61 0 119 3
130 6 21 6 20 7 279 -300 l78 -93 -63 -68 c-75 -79 -456 -489 -509 -547 -20
-22 -108 -124 -196 -226 -400 -469 -515 -653 -620 -993 -44 -140 -54 -206 -54
-346 1 -134 9 -180 52 -270 87 -182 296 -285 603 -297 114 -5 145 -2 253 21
68 14 149 37 179 51 l55 25 76 -70 c138 -127 313 -230 453 -266 95 -24 255
-16 336 18 178 74 331 237 384 408 42 134 45 241 13 381 -5 24 -1 28 56 52 67
30 80 28 80 -8 0 -13 23 -99 50 -191 121 -401 293 -722 504 -941 118 -124 202
-187 324 -248 496 -244 904 -20 1220 671 71 155 182 483 212 627 7 37 16 57
23 54 41 -15 326 -101 452 -135 203 -56 369 -95 560 -132 88 -17 185 -36 215
-42 69 -15 330 -14 390 1 77 20 203 73 250 105 165 112 274 282 334 521 18 74
38 319 31 383 -2 26 -7 87 -10 136 -15 225 -102 511 -245 800 -129 263 -293
488 -514 707 l-135 134 146 135 c224 207 585 589 752 794 284 349 460 628 524
831 50 161 62 238 62 425 0 157 -2 182 -23 242 -65 186 -233 307 -480 343
-177 26 -268 28 -437 10 -331 -34 -597 -111 -882 -253 l-120 -61 -97 118
c-129 156 -211 219 -356 272 -60 21 -111 32 -171 36 l-86 6 -6 76 c-16 199
-87 435 -163 542 -115 160 -383 317 -664 390 -135 34 -314 50 -436 38z m308
-274 c168 -33 348 -129 488 -261 140 -132 220 -295 220 -449 l0 -73 -65 -31
c-154 -72 -298 -199 -350 -308 -47 -101 -59 -172 -59 -363 0 -125 4 -193 16
-237 l15 -62 -177 -100 -178 -100 -172 114 c-94 63 -222 143 -283 178 -123 71
-467 244 -589 297 -43 19 -78 39 -78 46 0 20 29 130 70 264 130 424 254 692
395 852 99 111 289 217 435 241 61 10 245 6 312 -8z m3098 -1144 c144 -54 199
-125 208 -266 19 -296 -306 -904 -831 -1553 -110 -136 -207 -236 -382 -396
l-117 -107 -36 31 c-201 168 -350 282 -588 449 l-169 118 3 64 c1 35 7 118 12
184 5 66 14 199 21 295 l12 175 61 35 c35 20 105 79 167 140 123 123 155 180
195 349 14 58 29 117 32 130 6 19 33 35 137 81 328 145 682 256 925 290 110
15 286 6 350 -19z m-5085 -270 c174 -27 280 -53 356 -87 32 -15 59 -28 59 -29
0 -1 -16 -80 -35 -176 -50 -246 -103 -625 -115 -819 -10 -163 -45 -570 -57
-663 -5 -44 -9 -50 -69 -92 -117 -84 -249 -201 -395 -353 -81 -84 -149 -152
-153 -152 -18 0 -147 92 -204 145 -65 60 -152 165 -152 184 0 6 21 43 47 82
126 195 171 420 119 594 -37 122 -144 252 -253 305 -59 29 -77 33 -177 38
-141 6 -251 -19 -386 -86 -52 -26 -98 -48 -102 -50 -18 -8 -130 199 -169 313
-20 59 -24 89 -24 195 0 115 2 130 27 183 106 225 476 414 948 482 148 22 556
14 735 -14z m844 -304 c108 -42 427 -200 536 -265 82 -48 244 -178 233 -186
-1 -2 -34 -25 -73 -51 -225 -157 -315 -223 -853 -631 -106 -80 -188 -136 -190
-129 -3 13 14 178 63 605 27 236 58 416 101 601 30 129 12 123 183 56z m1737
-421 c62 -25 208 -56 265 -56 l28 0 -6 -232 c-3 -128 -6 -234 -8 -235 -1 -2
-24 12 -51 31 -103 71 -665 435 -678 439 -15 6 -17 4 122 95 l122 81 71 -49
c38 -26 99 -60 135 -74z m-596 -328 c234 -134 463 -281 751 -480 l125 -87 -22
-168 c-13 -92 -28 -202 -33 -243 -6 -41 -19 -142 -30 -225 -11 -82 -30 -217
-41 -300 -11 -82 -25 -184 -30 -225 -5 -41 -19 -141 -31 -222 l-22 -147 -117
-85 c-425 -313 -861 -615 -969 -670 -17 -9 -37 -14 -44 -10 -49 29 -463 330
-747 543 -256 192 -277 211 -284 251 -10 58 -18 987 -9 1104 l8 110 70 50
c491 352 1265 876 1295 876 2 0 61 -32 130 -72z m1299 -823 c165 -111 423
-315 435 -343 11 -27 -317 -344 -499 -483 -69 -53 -225 -152 -231 -147 -2 2
15 94 37 203 95 468 116 592 125 734 4 61 10 111 14 111 4 0 57 -34 119 -75z
m-3096 -482 c-3 -91 0 -192 11 -297 25 -244 35 -228 -91 -143 -114 76 -273
221 -273 249 0 24 174 197 270 266 46 34 85 62 86 62 1 0 0 -62 -3 -137z
m3836 -214 c182 -200 336 -410 435 -591 112 -206 193 -437 202 -578 2 -41 9
-100 14 -130 21 -120 50 -389 50 -455 -1 -255 -103 -359 -389 -396 -185 -24
-583 24 -971 117 -368 88 -550 140 -550 157 0 7 14 89 30 182 51 287 82 567
106 938 l7 109 116 85 c146 108 388 296 462 360 31 26 94 80 140 119 46 40
116 101 154 137 39 37 75 65 80 63 6 -1 57 -54 114 -117z m-4326 -282 c194
-155 349 -263 498 -350 l46 -27 6 -248 c7 -267 17 -389 47 -552 10 -58 26
-161 35 -230 8 -69 18 -138 20 -155 5 -28 1 -33 -49 -61 l-55 -32 -15 23 c-80
122 -275 199 -456 180 -100 -10 -264 -68 -362 -126 -211 -126 -359 -314 -406
-515 l-19 -79 -74 -19 c-104 -26 -341 -28 -420 -4 -110 35 -199 118 -230 216
-17 55 -23 229 -11 319 26 188 136 460 275 677 100 157 390 487 684 777 160
159 330 318 341 319 2 0 67 -51 145 -113z m2897 -815 c-6 -59 -15 -156 -21
-217 -6 -60 -21 -155 -34 -210 -13 -55 -31 -139 -41 -187 -9 -49 -21 -88 -26
-88 -11 0 -403 133 -449 152 -35 15 -183 110 -229 147 -24 19 -24 20 -5 27 17
6 85 44 265 146 48 28 367 242 465 312 61 44 81 54 83 42 2 -9 -1 -64 -8 -124z
m-1601 -222 c132 -96 239 -175 238 -176 -1 0 -106 -50 -233 -111 -224 -107
-301 -140 -310 -131 -2 3 -22 85 -44 184 -44 195 -57 318 -46 437 l8 76 73
-52 c41 -29 182 -131 314 -227z m528 -353 c56 -47 210 -146 290 -185 88 -45
237 -105 496 -203 94 -35 167 -68 167 -75 0 -27 -64 -275 -100 -389 -129 -409
-284 -641 -491 -740 -91 -43 -170 -58 -271 -53 -66 4 -91 11 -163 47 -149 73
-265 212 -393 467 -137 274 -208 473 -287 810 -4 18 9 27 97 69 56 26 147 65
202 85 135 50 214 86 316 142 47 25 90 47 97 47 6 1 24 -10 40 -22z"/>
<path d="M4262 5165 c-122 -27 -264 -111 -386 -225 -186 -174 -269 -406 -270
-755 -1 -155 0 -162 27 -219 18 -40 51 -83 100 -131 60 -59 93 -81 187 -128
162 -79 269 -102 460 -101 115 1 162 6 225 23 151 40 308 132 390 228 157 184
257 507 226 732 -30 226 -145 380 -364 485 -70 34 -147 63 -207 76 -121 28
-300 35 -388 15z"/>
</g>
</svg>
